<?xml version="1.0" standalone="no"?>
<!DOCTYPE svg PUBLIC "-//W3C//DTD SVG 20010904//EN"
 "http://www.w3.org/TR/2001/REC-SVG-20010904/DTD/svg10.dtd">
<svg version="1.0" xmlns="http://www.w3.org/2000/svg"
 width="300.000000pt" height="301.000000pt" viewBox="0 0 300.000000 301.000000"
 preserveAspectRatio="xMidYMid meet">
<metadata>
Created by potrace 1.10, written by Peter Selinger 2001-2011
</metadata>
<g transform="translate(0.000000,301.000000) scale(0.100000,-0.100000)"
fill="#000000" stroke="none">
<path d="M1685 2999 c-231 -33 -422 -173 -524 -384 -62 -127 -74 -193 -80
-418 l-6 -197 -160 -3 c-182 -2 -211 -12 -246 -79 -17 -34 -19 -61 -19 -300 0
-289 3 -308 63 -352 26 -19 45 -21 198 -24 l169 -3 0 -566 c0 -562 0 -566 22
-600 36 -60 55 -63 365 -63 258 0 280 1 310 20 71 43 68 11 71 641 l3 568 197
3 c179 3 199 5 224 23 60 45 63 58 66 320 4 282 -2 329 -53 374 -43 37 -90 43
-288 39 l-147 -3 0 132 c0 172 -12 163 215 163 192 0 221 8 262 69 22 33 23
40 23 295 0 238 -2 264 -19 292 -18 29 -87 72 -98 60 -3 -3 13 -26 36 -52 l41
-47 0 -251 c0 -337 14 -319 -257 -326 l-183 -5 -27 -28 c-27 -26 -28 -32 -31
-148 -2 -66 -1 -132 2 -146 11 -43 56 -53 246 -53 l172 0 29 -29 29 -29 0
-274 c0 -357 15 -338 -264 -338 -167 0 -173 -1 -194 -23 l-22 -23 0 -535 c0
-335 -4 -548 -10 -571 -6 -20 -22 -46 -37 -58 -24 -19 -39 -20 -300 -20 -169
0 -282 4 -294 10 -49 27 -49 32 -49 610 0 571 -1 587 -45 604 -9 3 -79 6 -156
6 -232 0 -229 -5 -229 340 0 264 5 296 47 316 10 5 89 11 175 14 215 7 201 -9
209 248 7 224 18 282 80 408 89 181 242 295 475 354 22 5 49 19 59 30 10 11
16 19 14 19 -2 -1 -31 -5 -64 -10z"/>
<path d="M1685 2865 c-79 -17 -185 -65 -247 -113 -110 -83 -195 -239 -217
-395 -6 -43 -11 -162 -11 -263 0 -247 12 -234 -213 -234 -228 0 -212 18 -212
-240 l0 -202 28 -24 c27 -23 33 -24 197 -24 163 0 169 -1 184 -22 14 -20 16
-93 16 -591 l0 -568 25 -24 c24 -25 25 -25 228 -25 199 0 204 0 225 23 21 23
22 25 24 599 2 457 6 580 16 590 9 9 70 14 223 18 272 6 249 -16 249 249 0
261 20 241 -242 241 -262 0 -243 -16 -243 212 0 198 6 235 42 278 47 57 73 64
251 70 l164 5 24 28 c23 27 24 33 24 203 0 172 0 175 -25 199 l-24 25 -213 -1
c-136 0 -235 -5 -273 -14z m495 -212 l0 -188 -148 0 c-156 0 -206 -10 -262
-47 -80 -55 -100 -126 -100 -361 l0 -169 34 -34 34 -34 211 0 211 0 0 -202 0
-203 -187 3 c-215 5 -254 -3 -283 -51 -19 -31 -20 -55 -20 -609 l0 -578 -210
0 -210 0 0 585 0 585 -29 32 -29 33 -184 1 -183 1 -3 202 -2 201 175 0 c194 0
224 7 243 57 6 16 13 127 15 258 3 173 8 245 21 290 51 185 165 314 331 374
91 33 141 39 368 40 l207 1 0 -187z"/>
</g>
</svg>
